<?xml version="1.0" encoding="UTF-8" standalone="no"?>
<!-- Created with Inkscape (http://www.inkscape.org/) -->

<svg
   xmlns:dc="http://purl.org/dc/elements/1.1/"
   xmlns:cc="http://creativecommons.org/ns#"
   xmlns:rdf="http://www.w3.org/1999/02/22-rdf-syntax-ns#"
   xmlns:svg="http://www.w3.org/2000/svg"
   xmlns="http://www.w3.org/2000/svg"
   xmlns:sodipodi="http://sodipodi.sourceforge.net/DTD/sodipodi-0.dtd"
   xmlns:inkscape="http://www.inkscape.org/namespaces/inkscape"
   width="199.25177mm"
   height="141.26334mm"
   viewBox="0 0 706.01021 500.53938"
   id="svg4146"
   version="1.1"
   inkscape:version="0.91 r13725"
   sodipodi:docname="GTI_Outline.svg">
  <defs
     id="defs4148" />
  <sodipodi:namedview
     id="base"
     pagecolor="#ffffff"
     bordercolor="#666666"
     borderopacity="1.0"
     inkscape:pageopacity="0.0"
     inkscape:pageshadow="2"
     inkscape:zoom="0.7"
     inkscape:cx="476.08479"
     inkscape:cy="150.61511"
     inkscape:document-units="px"
     inkscape:current-layer="layer1"
     showgrid="false"
     inkscape:window-width="1617"
     inkscape:window-height="1032"
     inkscape:window-x="4708"
     inkscape:window-y="156"
     inkscape:window-maximized="0"
     borderlayer="false"
     showborder="false"
     fit-margin-top="0"
     fit-margin-left="0"
     fit-margin-right="0"
     fit-margin-bottom="0" />
  <metadata
     id="metadata4151">
    <rdf:RDF>
      <cc:Work
         rdf:about="">
        <dc:format>image/svg+xml</dc:format>
        <dc:type
           rdf:resource="http://purl.org/dc/dcmitype/StillImage" />
        <dc:title></dc:title>
      </cc:Work>
    </rdf:RDF>
  </metadata>
  <g
     inkscape:label="Layer 1"
     inkscape:groupmode="layer"
     id="layer1"
     transform="translate(-15.566312,-27.80682)">
    <path
       style="fill:#000000"
       d="m 43.959548,527.34373 c -5.635965,-2.27719 -8.72767,-10.32791 -10.516772,-27.38542 -1.837578,-17.5197 -0.467364,-88.76213 2.719266,-141.38451 0.473518,-7.81944 1.053624,-11.25 1.90237,-11.25 0.839,0 1.428269,3.20743 1.883129,10.25 0.36411,5.6375 1.112404,15.65 1.662875,22.25 0.55047,6.6 1.6605,20.63067 2.466732,31.17926 1.305741,17.08407 2.453592,24.28643 7.5143,47.14958 1.442872,6.51857 5.726513,11.70493 11.827672,14.3202 8.86449,3.79976 44.38578,9.85096 57.82638,9.85096 l 7.32593,0 -0.0306,4.75 c -0.0168,2.6125 -0.43147,10.26464 -0.92138,17.00476 -1.05124,14.46265 -2.45323,17.51514 -9.90821,21.57264 l -4.91047,2.6726 -33.364667,-0.0634 c -18.35057,-0.0349 -34.315019,-0.44737 -35.476555,-0.91668 z m 72.161712,-4.60056 c 6.77245,-4.42441 7.64329,-6.37768 9.06255,-20.32701 1.92971,-18.96642 2.52221,-17.09236 -5.40392,-17.09236 -12.7626,0 -42.346487,-4.70467 -53.708459,-8.54117 -11.447625,-3.86541 -14.492393,-6.99569 -17.468228,-17.95883 -4.478556,-16.49925 -6.180572,-27.72546 -8.102029,-53.43963 -1.086616,-14.54179 -2.121822,-26.58578 -2.300458,-26.76442 -0.95198,-0.95198 -2.819884,76.81566 -2.358767,98.20405 0.721703,33.47539 2.801356,44.28109 9.110625,47.33802 1.306852,0.63319 14.592865,1.05256 34.668689,1.0943 l 32.549827,0.0677 3.95017,-2.58063 z M 53.571431,474.26478 c 0,-0.58246 0.45,-0.7809 1,-0.44098 0.55,0.33992 1,0.81648 1,1.05902 0,0.24254 -0.45,0.44098 -1,0.44098 -0.55,0 -1,-0.47656 -1,-1.05902 z M 38.287685,351.5738 c -0.229124,-1.5125 -0.41659,-0.275 -0.41659,2.75 0,3.025 0.187466,4.2625 0.41659,2.75 0.229125,-1.5125 0.229125,-3.9875 0,-5.5 z M 619.07143,525.44112 c -7.19746,-4.18184 -8.37032,-6.81294 -9.49725,-21.30536 -0.52655,-6.77158 -0.96758,-14.44946 -0.98006,-17.06196 l -0.0227,-4.75 7.75,-0.0208 c 13.84033,-0.0372 48.47135,-6.00189 57.62318,-9.92483 5.89194,-2.52558 10.18048,-7.78169 11.6068,-14.22552 4.91104,-22.18696 6.10108,-29.66293 7.45695,-46.84517 0.84561,-10.71602 1.98113,-24.88367 2.52337,-31.48367 0.54224,-6.6 1.28465,-16.3875 1.6498,-21.75 0.45966,-6.7504 1.04649,-9.75 1.90746,-9.75 0.86752,0 1.44336,3.09934 1.90437,10.25 1.81982,28.22649 2.67381,51.94469 3.23153,89.75 0.79538,53.91537 -0.66152,68.49907 -7.62143,76.29131 l -2.86595,3.20869 -34.83304,0.2612 -34.83304,0.2612 -5,-2.90508 z m 72.93819,-1.27111 c 3.95238,-1.80082 6.47518,-8.39572 8.22238,-21.49419 1.3431,-10.06907 1.46962,-18.3207 0.84104,-54.85202 -0.40693,-23.65 -1.02988,-49.075 -1.38432,-56.5 l -0.64443,-13.5 -0.74619,7.5 c -0.4104,4.125 -1.42246,16.36549 -2.24901,27.2011 -1.48817,19.50881 -3.39198,31.28527 -7.40399,45.7989 -3.07556,11.12599 -6.07132,14.41731 -16.41885,18.03876 -11.78209,4.12352 -41.40001,8.96124 -54.86328,8.96124 -7.92613,0 -7.33363,-1.87406 -5.40392,17.09236 1.41926,13.94933 2.2901,15.9026 9.06255,20.32701 l 3.95017,2.58063 32.25278,0 c 22.23803,0 33.03907,-0.35826 34.78507,-1.15379 z m -9.93819,-49.84621 c 0.33992,-0.55 0.81648,-1 1.05902,-1 0.24254,0 0.44098,0.45 0.44098,1 0,0.55 -0.47656,1 -1.05902,1 -0.58246,0 -0.7809,-0.45 -0.44098,-1 z m 17.21625,-107.75 c -0.22912,-1.5125 -0.41659,-0.275 -0.41659,2.75 0,3.025 0.18747,4.2625 0.41659,2.75 0.22913,-1.5125 0.22913,-3.9875 0,-5.5 z m -0.054,-10.5 c -0.27741,-0.6875 -0.50439,-0.125 -0.50439,1.25 0,1.375 0.22698,1.9375 0.50439,1.25 0.27741,-0.6875 0.27741,-1.8125 0,-2.5 z m 0,-5 c -0.27741,-0.6875 -0.50439,-0.125 -0.50439,1.25 0,1.375 0.22698,1.9375 0.50439,1.25 0.27741,-0.6875 0.27741,-1.8125 0,-2.5 z m -384.16225,99.6133 c -28.08227,-1.01067 -41.01492,-2.22768 -46.63898,-4.38892 -6.9862,-2.68469 -12.09518,-6.81143 -15.38726,-12.42894 -2.61058,-4.45462 -9.21482,-31.38627 -15.46015,-63.04544 -1.73595,-8.8 -3.99013,-19.6 -5.00928,-24 -1.94326,-8.38965 -17.39624,-69.37238 -18.55827,-73.23726 l -0.67266,-2.23726 68.50964,0.65039 c 62.48365,0.59319 68.81603,0.505 71.99304,-1.00259 9.30626,-4.41611 20.07977,-4.44544 29.27986,-0.0797 3.39601,1.61151 8.44298,1.68721 72.16102,1.0823 l 68.50964,-0.65039 -0.65948,2.23726 c -1.27914,4.33947 -16.7539,65.34206 -18.57837,73.23726 -1.01678,4.4 -3.03419,14.075 -4.48315,21.5 -5.62837,28.84194 -12.71617,58.71199 -15.12098,63.72425 -5.42703,11.31135 -14.79756,15.91282 -35.38462,17.37588 -13.62573,0.96834 -115.98185,1.92963 -134.5,1.26317 z m 132.5,-4.27632 c 14.54998,-1.05011 23.56761,-3.43189 27.83814,-7.35272 1.33844,-1.22884 3.88782,-4.48426 5.66529,-7.23426 3.42839,-5.30421 5.05133,-11.2252 10.55281,-38.5 3.11389,-15.43777 5.39141,-25.90601 9.12131,-41.9246 1.07892,-4.63353 2.12242,-9.58353 2.31889,-11 0.56783,-4.09369 4.27045,-19.00389 9.95184,-40.0754 2.89171,-10.725 5.53245,-20.93686 5.8683,-22.69302 l 0.61063,-3.19303 -67.36709,0.60277 c -61.15691,0.54719 -67.68575,0.45155 -70.82379,-1.03755 -6.96083,-3.30313 -13.15044,-3.99084 -19.46276,-2.16246 -3.17546,0.91978 -6.3511,2.14737 -7.05697,2.72798 -0.88623,0.72895 -21.04442,0.88978 -65.13859,0.5197 l -63.85519,-0.53594 1.83935,3.63577 c 1.01164,1.99968 3.503,8.58578 5.53636,14.63578 3.51271,10.45163 7.03848,17.83722 12.12058,25.38955 1.25449,1.86425 2.30941,2.98925 2.34428,2.5 0.0349,-0.48925 0.43277,0.0213 0.88425,1.13466 1.21827,3.0042 11.64185,6.27394 25.55236,8.01543 17.57924,2.20079 170.05527,2.19911 188.65938,-0.002 17.29114,-2.04584 25.81052,-5.37268 29.22171,-11.41117 0.6154,-1.08937 2.74998,-4.82596 4.74352,-8.30353 1.99353,-3.47757 4.1994,-8.12286 4.90193,-10.32286 2.04977,-6.41897 6.12302,-17.72688 7.65452,-21.25 1.04305,-2.39948 2.05474,-3.25 3.86586,-3.25 3.34553,0 3.19279,2.28367 -0.93636,14 -6.24214,17.71189 -10.87794,28.14371 -14.25548,32.07874 -0.7453,0.86831 -1.35508,2.04461 -1.35508,2.614 0,1.52008 -6.81894,5.97967 -12,7.848 -11.36293,4.09756 -18.94686,4.52569 -90.5,5.1089 -76.31903,0.62206 -125.01716,-0.49435 -135,-3.09487 -8.88707,-2.31507 -13.88313,-5.08768 -17.69804,-9.82168 -3.88453,-4.8204 -7.85072,-11.6041 -9.78323,-16.73309 -0.72531,-1.925 -1.86313,-4.85 -2.5285,-6.5 -1.61683,-4.00948 -7.13399,-19.42367 -7.96623,-22.25653 -0.51804,-1.76337 -0.15601,-2.45979 1.65654,-3.18661 2.06547,-0.82824 1.91156,-0.93703 -1.40554,-0.99347 -3.67129,-0.0625 -3.7161,-0.0165 -3.10796,3.18661 0.33937,1.7875 2.8171,11.35 5.50607,21.25 6.16587,22.7009 9.73217,37.06565 11.42033,46 0.72746,3.85 2.2523,11.05 3.38853,16 2.02796,8.83484 8.58946,39.86688 11.49272,54.3538 1.85274,9.245 5.2491,16.72783 9.95857,21.94065 6.65516,7.36647 15.96428,9.09048 57.06674,10.56857 18.56398,0.66757 116.89161,-0.29388 130.5,-1.27604 z m -202,-144.78096 c -2.35489,-0.84162 -4,-3.44773 -4,-6.33663 0,-4.28456 3.10721,-4.96939 22.54705,-4.96939 16.53334,0 17.45295,0.10099 17.45295,1.91667 0,1.05416 -0.5625,2.17916 -1.25,2.5 -1,0.46666 -1,0.7 0,1.16666 0.6875,0.32084 1.25,1.63777 1.25,2.92653 0,2.2421 -0.35592,2.35715 -8.25,2.66667 -10.68853,0.41908 -13.75,0.031 -13.75,-1.74295 0,-0.78847 -0.45,-1.43358 -1,-1.43358 -0.55,0 -0.8875,0.53748 -0.75,1.19441 0.3937,1.88096 -8.57136,3.42632 -12.25,2.11161 z m 1,-5.36504 c 0,-1.13246 -0.43035,-1.79305 -0.95633,-1.46797 -0.52598,0.32507 -0.70283,1.25163 -0.39301,2.05902 0.79323,2.06711 1.34934,1.82352 1.34934,-0.59105 z m 19,-0.94098 c 0,-1.65 -0.37206,-3 -0.82681,-3 -0.45474,0 -0.62867,1.35 -0.3865,3 0.24217,1.65 0.61423,3 0.82681,3 0.21257,0 0.3865,-1.35 0.3865,-3 z m 8,0 c 0,-0.55 -0.45,-1 -1,-1 -0.55,0 -1,0.45 -1,1 0,0.55 0.45,1 1,1 0.55,0 1,-0.45 1,-1 z m 98.75,39.27153 c -2.0625,-0.21574 -5.4375,-0.21574 -7.5,0 -2.0625,0.21575 -0.375,0.39226 3.75,0.39226 4.125,0 5.8125,-0.17651 3.75,-0.39226 z m -72.0223,-1.00133 c -2.07477,-0.21647 -5.22477,-0.21284 -7,0.008 -1.77524,0.22091 -0.0777,0.39803 3.7723,0.39359 3.85,-0.004 5.30246,-0.18518 3.2277,-0.40166 z m 7.00147,0.12563 c -0.33229,-0.33229 -1.1948,-0.36781 -1.91667,-0.0789 -0.79773,0.31922 -0.56078,0.55618 0.60417,0.60416 1.05416,0.0434 1.64479,-0.19293 1.3125,-0.52522 z m 136.551,-0.12656 c -2.3209,-0.20972 -6.3709,-0.21222 -9,-0.006 -2.62909,0.20667 -0.73017,0.37827 4.21983,0.38131 4.95,0.003 7.10108,-0.16605 4.78017,-0.37577 z M 208.07143,443.69604 c -2.2,-0.21229 -17.5,-1.30501 -34,-2.42828 -68.19008,-4.64215 -82.048542,-9.02899 -87.350087,-27.6503 -4.254311,-14.94298 -7.264112,-40.34324 -5.230688,-44.14273 1.928539,-3.60351 9.111759,-3.24821 77.645435,3.84051 15.98557,1.65346 31.35435,3.68625 34.15285,4.51731 5.53102,1.64254 14.31542,8.72047 16.81001,13.54447 1.46607,2.83506 11.41599,39.94799 12.18422,45.44678 0.81739,5.85068 -3.44393,7.91129 -14.21174,6.87224 z m 10.34653,-3.68732 c 1.53635,-1.85119 0.31146,-8.05513 -5.60133,-28.37 -8.75674,-30.08599 -9.31718,-30.46818 -51.0665,-34.82465 -13.57328,-1.41634 -30.5287,-3.21487 -37.6787,-3.99672 -33.797874,-3.69577 -38.5693,-3.99064 -39.618575,-2.44842 -1.709968,2.5133 -0.283069,20.69398 2.5353,32.30324 2.795475,11.51494 4.31348,15.16453 8.484756,20.39905 4.866689,6.10718 22.772409,10.2629 61.098519,14.1803 40.74292,4.16443 59.96734,5.02148 61.84653,2.7572 z M 113.02185,424.9172 c -12.4914,-5.44091 -11.86153,-24.33235 0.95228,-28.56129 5.94238,-1.96116 13.46926,-0.59247 16.81621,3.05787 7.5109,8.19175 5.01013,21.40942 -4.82841,25.52022 -4.13198,1.72645 -8.95225,1.72019 -12.94008,-0.0168 z m 14.63805,-5.17816 c 4.52852,-4.3386 5.43799,-8.43666 3.06358,-13.80442 -5.53972,-12.52344 -23.15205,-8.66583 -23.15205,5.07097 0,10.40339 12.61911,15.88955 20.08847,8.73345 z m 390.19145,23.55576 c -2.48446,-0.98974 -3.83099,-4.85217 -2.87163,-8.23705 0.34824,-1.22867 2.88016,-10.93102 5.62648,-21.56077 2.74633,-10.62975 5.64329,-20.58373 6.43771,-22.11996 2.49459,-4.824 11.27899,-11.90193 16.81001,-13.54447 4.54037,-1.34835 33.68208,-4.68509 78.71751,-9.01321 8.525,-0.81929 19.19667,-1.49095 23.71482,-1.49258 7.4139,-0.003 8.32833,0.20915 9.37913,2.17259 2.06732,3.86283 -0.89983,28.62274 -5.28962,44.14007 -5.26626,18.61558 -19.03148,22.94296 -87.89126,27.63042 -16.17719,1.10122 -32.33807,2.20633 -35.91307,2.4558 -3.575,0.24947 -7.49904,0.0556 -8.72008,-0.43084 z m 34.71619,-3.49617 c 41.65135,-3.2575 66.11996,-6.73088 78.94269,-11.2061 11.17883,-3.90149 14.16239,-8.03837 18.58465,-25.76873 2.92477,-11.72636 4.37326,-29.84138 2.59513,-32.45487 -1.04928,-1.54222 -5.82071,-1.24735 -39.61858,2.44842 -7.15,0.78185 -24.025,2.57419 -37.5,3.98297 -13.475,1.40878 -26.84,3.18122 -29.69999,3.93875 -11.39257,3.01755 -14.80105,7.83493 -21.39293,30.23571 -5.75646,19.56181 -7.08058,26.12819 -5.76704,28.59902 1.19315,2.24438 7.49815,2.28626 33.85607,0.22483 z m 58.50389,-14.88647 c -9.52644,-4.23406 -12.06074,-16.86074 -5.01652,-24.9939 1.38409,-1.59805 2.51652,-3.27684 2.51652,-3.73065 0,-0.45381 3.28268,-0.72132 7.29483,-0.59446 5.2357,0.16554 8.129,0.77737 10.25,2.16751 1.62535,1.06527 3.15175,1.81974 3.39202,1.6766 0.24026,-0.14313 1.28767,1.90577 2.32756,4.55312 5.43802,13.84413 -7.4566,26.83648 -20.76441,20.92178 z m 11.46136,-3.06838 c 4.44862,-2.30047 7.03864,-6.25637 7.03864,-10.75055 0,-13.81583 -17.58895,-17.7349 -23.15205,-5.15861 -2.35787,5.33037 -1.45735,9.51701 2.92517,13.59947 4.40535,4.10374 8.37465,4.7989 13.18824,2.30969 z M 151.57143,315.62533 c -17.04933,-0.82129 -53.220199,-4.66748 -70.081061,-7.45199 l -6.918938,-1.14264 0.01952,-8.10345 c 0.04439,-18.42591 4.988869,-40.98023 10.597919,-48.34257 6.550123,-8.59758 15.94964,-14.13925 25.44231,-15.00001 11.76938,-1.06721 30.25406,2.98832 49.94025,10.95686 18.3609,7.4321 24.389,10.60863 23.09375,12.16931 -0.7791,0.93876 -0.67837,1.27963 0.37814,1.27963 0.79207,0 1.20837,-0.375 0.9251,-0.83334 -1.05088,-1.70037 1.21728,-0.69411 10.8954,4.83367 11.26753,6.4356 11.78946,7.19307 15.6932,22.77546 3.21828,12.8463 1.22801,20.58994 -6.44827,25.08854 -6.24472,3.65965 -26.38839,5.07833 -53.53732,3.77053 z m 35.39529,-3.36564 c 14.10016,-1.2369 18.4665,-3.01751 21.12204,-8.61366 2.92739,-6.16901 2.22276,-12.05351 -3.24137,-27.06938 -1.19371,-3.28041 -2.68391,-4.94762 -6.54685,-7.32451 -4.88482,-3.00566 -4.98458,-3.0232 -4.28191,-0.75285 2.69836,8.71845 1.27505,19.85791 -3.05732,23.92796 -1.31443,1.23485 -2.42541,3.40424 -2.46883,4.82086 -0.0434,1.41663 -0.29375,2.0497 -0.55629,1.40682 -0.33637,-0.82368 -1.86348,-0.53981 -5.17105,0.96125 -6.2367,2.83037 -15.198,2.8153 -20.69371,-0.0348 -10.05662,-5.2154 -14.84045,-15.48371 -12.48949,-26.80821 0.61899,-2.98163 0.99385,-5.54 0.83303,-5.68526 -0.72577,-0.65556 9.97289,-9.52683 12.65646,-10.49467 1.65,-0.59509 3.9,-1.39251 5,-1.77207 1.65129,-0.56977 0.95403,-1.20226 -3.99912,-3.6276 -3.29951,-1.61563 -8.24951,-3.57071 -11,-4.34463 -2.75048,-0.77391 -8.60088,-2.49358 -13.00088,-3.82149 -4.4,-1.32791 -9.8,-2.71668 -12,-3.08615 l -4,-0.67178 4,1.89191 c 5.27461,2.49476 11.2994,8.51019 13.60268,13.58155 1.34625,2.96418 1.85941,6.48418 1.87536,12.86406 0.0187,7.4755 -0.36045,9.5379 -2.54644,13.85173 -5.17454,10.21148 -14.0243,15.95121 -24.8347,16.10717 -7.69331,0.11098 -12.96303,-1.58511 -18.278809,-5.88317 -12.540738,-10.13979 -13.283294,-31.50289 -1.51874,-43.6937 4.498269,-4.66126 10.010739,-7.62074 16.121099,-8.65493 3.83216,-0.6486 4.05485,-0.7943 1.3645,-0.89272 -7.78066,-0.28465 -21.233545,7.04042 -26.207614,14.26998 -1.569282,2.28087 -3.803329,7.22307 -4.96455,10.98267 -2.373863,7.68567 -5.112785,26.73449 -5.112785,35.5587 l 0,5.82653 7.75,1.14351 c 4.2625,0.62893 10.225,1.32551 13.25,1.54794 3.024999,0.22244 12.549849,1.1437 21.166339,2.04725 31.64269,3.31814 49.74354,3.97554 67.22895,2.44169 z m -7.11263,-17.84273 c 8.19822,-3.51416 11.96701,-12.28261 9.2687,-21.56448 -1.73357,-5.96327 -5.25487,-9.61567 -11.14454,-11.55943 -4.7046,-1.55266 -11.91855,-0.71996 -15.27106,1.76274 -3.15916,2.33951 -7.30249,8.18921 -6.60256,9.32173 0.27468,0.44445 0.0421,1.09074 -0.51689,1.4362 -2.58272,1.59621 -0.15758,12.43957 3.77183,16.86471 2.36955,2.66849 9.07663,5.59704 12.87895,5.62341 1.74191,0.0121 5.16891,-0.83612 7.61557,-1.88488 z m -52.76285,-5.50236 c 10.49014,-7.5637 14.38287,-21.127 9.00451,-31.37404 -2.88702,-5.50043 -5.95525,-9.29934 -7.75383,-9.60033 -0.69877,-0.11694 -2.22663,-0.73914 -3.39525,-1.38268 -3.18772,-1.75542 -10.01106,-2.63203 -10.78167,-1.38515 -0.36169,0.58523 -1.27458,0.8273 -2.02864,0.53794 -1.88373,-0.72285 -8.50433,2.82593 -11.70077,6.27188 -6.269219,6.75857 -8.336767,16.39189 -5.409579,25.20483 0.93838,2.82521 2.11999,5.13675 2.62579,5.13675 0.5058,0 0.91963,0.62159 0.91963,1.38131 0,1.49754 5.497699,6.05121 9.202479,7.62228 1.26364,0.53587 5.23143,0.85792 8.81733,0.71568 5.34285,-0.21195 7.23832,-0.7767 10.5,-3.12847 z m -6.79064,-50.19497 c -0.3323,-0.33229 -1.1948,-0.36781 -1.91667,-0.0789 -0.79773,0.31922 -0.56078,0.55618 0.60417,0.60416 1.05416,0.0434 1.64479,-0.19293 1.3125,-0.52522 z m 427.03579,76.5691 c -15.24073,-1.27505 -20.67043,-4.71497 -22.85575,-14.48 -0.98436,-4.39862 -0.83798,-6.28595 1.08197,-13.94972 3.93917,-15.72381 4.42561,-16.42779 15.8023,-22.86933 9.88656,-5.59782 11.81544,-6.46016 10.80953,-4.83255 -0.28327,0.45834 0.13303,0.83334 0.9251,0.83334 1.05544,0 1.15685,-0.34134 0.37966,-1.2778 -1.28829,-1.55229 3.42439,-4.08605 21.15846,-11.37578 19.10396,-7.85283 35.91034,-12.01309 48.52981,-12.01309 10.18206,0 21.44835,5.66325 27.77798,13.96321 6.60547,8.66167 11.55877,29.84668 11.60646,49.64024 l 0.0195,8.10345 -6.91894,1.14264 c -35.34699,5.83743 -84.77801,9.0846 -108.3161,7.11539 z m 39.73504,-2.97386 c 17.21448,-1.07788 50.84703,-4.25985 64.25,-6.07867 l 8.25,-1.11955 -0.0183,-6.64643 c -0.0342,-12.41485 -3.97331,-34.1017 -7.57737,-41.71762 -4.14601,-8.76113 -16.61912,-17.14596 -26.6982,-17.94738 l -5.20611,-0.41396 4.77737,0.88729 c 27.08124,5.02972 33.51964,43.12311 9.37548,55.47089 -13.63773,6.97459 -30.72297,1.30238 -37.69828,-12.51564 -2.61213,-5.17461 -2.95202,-6.8704 -2.93261,-14.63148 0.0159,-6.37528 0.52936,-9.8957 1.87536,-12.85934 2.30328,-5.07136 8.32807,-11.08679 13.60268,-13.58155 l 4,-1.89191 -4,0.67178 c -2.2,0.36947 -7.6,1.75736 -12,3.08419 -4.4,1.32683 -10.025,2.99994 -12.5,3.71801 -2.475,0.71807 -7.425,2.66091 -11,4.31742 -5.31825,2.46427 -6.13638,3.14098 -4.5,3.72214 6.21208,2.20621 9.42452,4.04261 13.09936,7.48825 3.42156,3.20817 4.2975,4.85085 5.29775,9.93506 2.37489,12.07132 -2.14414,22.05158 -12.39711,27.37898 -4.83972,2.5147 -14.30557,2.7785 -19.5,0.54343 -5.11941,-2.20278 -11.61715,-9.36592 -13.01065,-14.343 -1.19002,-4.25037 -0.93301,-12.93062 0.51184,-17.28649 0.74671,-2.25116 0.60898,-2.22479 -4.36507,0.83577 -2.82487,1.73816 -5.13926,3.23419 -5.14309,3.32451 -0.004,0.0903 -1.15809,3.53923 -2.565,7.66423 -4.84984,14.21946 -4.87023,20.63273 -0.0822,25.84501 3.62693,3.94829 7.19798,5.15263 17.88553,6.0319 14.81486,1.21882 20.36228,1.23537 38.26862,0.11416 z M 572.60147,294.0738 c 12.21701,-6.17185 13.18901,-22.60923 1.8342,-31.01801 -3.74155,-2.7708 -10.91801,-3.36508 -16.21365,-1.34265 -5.52818,2.11123 -8.74381,5.8425 -10.34117,11.99941 -3.93347,15.16133 10.87307,27.35681 24.72062,20.36125 z m 60.38908,-4.90423 c 2.61911,-1.73482 5.03358,-3.87232 5.36549,-4.75 0.33192,-0.87767 1.1742,-2.17345 1.87175,-2.87951 3.58842,-3.6322 4.22473,-13.78631 1.34607,-21.48023 -4.38585,-11.72223 -15.81488,-17.67672 -27.44129,-14.29683 -12.42551,3.6122 -19.1812,18.99388 -13.67073,31.12618 4.51282,9.93577 12.10126,15.32072 21.68815,15.39042 5.1882,0.0377 6.77606,-0.41781 10.84056,-3.11003 z M 52.571431,185.79249 c -9.075,-0.69935 -18.683443,-1.77811 -21.352096,-2.39723 -9.021809,-2.09307 -15.647909,-6.64335 -15.647909,-10.74577 0,-2.87049 -1.00084,-2.85745 25.000005,-0.32569 25.657036,2.49828 28.648474,2.52332 29.869835,0.25 2.429198,-4.52147 19.130165,-9.66139 19.130165,-5.88754 0,1.75082 -5.626412,15.41843 -7.565319,18.37757 -1.747176,2.66653 -3.670466,2.71414 -29.434681,0.72866 z m 28.454928,-5.21869 c 2.209037,-4.53824 4.662372,-12.25 3.897081,-12.25 -2.379022,0 -12.304104,5.70881 -12.7253,7.31947 -0.47218,1.80561 -1.076899,1.90996 -7.320703,1.26325 -13.827992,-1.43227 -38.907181,-3.5584 -42.115021,-3.57037 -1.98497,-0.007 -3.05819,0.3935 -2.68215,1.00194 1.01875,1.64838 7.952568,4.85228 13.15531,6.07865 4.683501,1.10398 30.600941,3.49334 40.900643,3.77068 4.909873,0.13221 5.120619,0.0217 6.89014,-3.61362 z m 574.110391,4.49003 c -1.93891,-2.95914 -7.56532,-16.62675 -7.56532,-18.37757 0,-3.82148 16.66199,1.26893 19.10694,5.83737 1.24749,2.33094 4.09805,2.31189 29.89306,-0.19983 26.00084,-2.53176 25,-2.5448 25,0.32569 0,3.9902 -6.54789,8.59967 -15.14496,10.6615 -3.93367,0.94341 -38.68242,3.91587 -46.58199,3.9847 -2.26711,0.0197 -3.6674,-0.6441 -4.70773,-2.23186 z m 26.93468,-2.24471 c 19.49217,-1.56772 24.61156,-2.49126 30.52099,-5.50603 5.01075,-2.55629 5.83719,-3.99264 2.28803,-3.97659 -3.18044,0.0144 -34.77395,2.63207 -43.61714,3.61392 -5.28742,0.58705 -5.85596,0.46195 -6.34168,-1.39546 -0.33735,-1.29001 -2.66034,-2.99476 -6.31692,-4.63574 -3.18086,-1.42748 -6.04308,-2.59542 -6.36049,-2.59542 -0.78584,0 1.63085,7.6452 3.87228,12.25 2.15447,4.42614 0.5575,4.28799 25.95493,2.24532 z m -417.5,-14.51101 c -90.58786,-1.36296 -137.8948,-4.35733 -150.87171,-9.54966 -4.64096,-1.85694 -5.74123,-4.21573 -4.7727,-10.23186 0.72915,-4.52916 11.05394,-31.92203 15.90687,-42.20278 1.94716,-4.125 5.59206,-12.130794 8.09976,-17.790644 2.50771,-5.65985 5.40139,-11.50985 6.43042,-13 1.02903,-1.49015 3.85915,-6.66551 6.28916,-11.50081 2.43001,-4.8353 7.83789,-13.8353 12.0175,-20 l 7.5993,-11.20855 8.69058,-0.17226 c 4.77982,-0.0947 18.68514,-0.65014 30.9007,-1.23421 12.21557,-0.58406 34.13512,-1.63154 48.71012,-2.32773 35.79362,-1.70972 192.99919,-1.71071 229.5,-0.001 14.85,0.6954 37.125,1.73921 49.5,2.31959 12.375,0.58038 26.28415,1.13642 30.90923,1.23564 l 8.40923,0.18041 6.88484,10 c 6.05448,8.79394 11.94948,19.11384 21.9922,38.5 9.15383,17.67027 26.18913,59.377564 27.44891,67.202784 0.92922,5.77196 -0.14882,8.27337 -4.37291,10.14655 -8.78052,3.89374 -42.53512,6.75922 -101.2715,8.59709 -44.78467,1.40132 -193.9595,2.00142 -258,1.03788 z m 256,-4.04059 c 31.6727,-0.98848 65.63624,-2.90686 87.1405,-4.92198 10.4113,-0.97562 16.50431,-2.93254 17.54083,-5.63367 1.07649,-2.8053 -2.40553,-13.92359 -9.74925,-31.12994 -3.81264,-8.93304 -6.93208,-16.51115 -6.93208,-16.84026 0,-0.3291 -3.46748,-7.645254 -7.70551,-16.258114 -4.23802,-8.61287 -7.75509,-15.88475 -7.81569,-16.15975 -0.46466,-2.10845 -19.1631,-32.6843 -21.28623,-34.80743 -2.5465,-2.5465 0.59727,-2.2342 -41.69257,-4.14162 -141.30019,-6.37312 -193.63418,-6.29865 -331.37282,0.47152 -16.15506,0.79406 -29.68037,1.25368 -30.05624,1.02137 -0.9248,-0.57156 -6.00075,5.52773 -9.07094,10.89968 -1.375,2.40585 -4.50853,7.67778 -6.96341,11.71538 -4.65251,7.65212 -24.03659,45.640634 -24.03659,47.106414 0,0.46215 -2.85625,7.45402 -6.34723,15.53748 -6.78191,15.70373 -11.07764,28.70776 -10.50456,31.79938 0.59225,3.19505 6.85888,5.38452 18.48993,6.46013 38.62522,3.57195 69.8684,4.92561 136.36186,5.90809 64.31398,0.95027 209.45252,0.36362 254,-1.02668 z"
       id="path4708"
       inkscape:connector-curvature="0" />
  </g>
</svg>
